<svg width="40" height="43" viewBox="0 0 40 43" fill="none" xmlns="http://www.w3.org/2000/svg">
                    <path d="M37.8 2.58H33.2V0.43C33.2 0.1935 33.02 0 32.8 0H7.2C6.98 0 6.8 0.1935 6.8 0.43V2.58H2.2C1.61652 2.58 1.05694 2.82917 0.644365 3.27269C0.231785 3.71622 0 4.31776 0 4.945V12.9C0 17.2914 3 20.941 6.91 21.6075C7.685 27.8533 12.35 32.7714 18.2 33.4594V39.1139H8.4C7.515 39.1139 6.8 39.8825 6.8 40.8339V42.57C6.8 42.8065 6.98 43 7.2 43H32.8C33.02 43 33.2 42.8065 33.2 42.57V40.8339C33.2 39.8825 32.485 39.1139 31.6 39.1139H21.8V33.4594C27.65 32.7714 32.315 27.8533 33.09 21.6075C37 20.941 40 17.2914 40 12.9V4.945C40 4.31776 39.7682 3.71622 39.3556 3.27269C38.9431 2.82917 38.3835 2.58 37.8 2.58ZM3.6 12.9V6.45H6.8V17.6085C5.87123 17.2896 5.06077 16.6616 4.48559 15.8153C3.91042 14.969 3.6003 13.9481 3.6 12.9ZM29.6 19.78C29.6 22.4191 28.645 24.9077 26.905 26.7729C25.165 28.6434 22.855 29.67 20.4 29.67H19.6C17.145 29.67 14.83 28.6434 13.095 26.7729C11.355 24.9024 10.4 22.4191 10.4 19.78V3.87H29.6V19.78ZM36.4 12.9C36.4 15.1038 35.055 16.9743 33.2 17.6085V6.45H36.4V12.9Z" fill="#382EB4"/>
                    </svg>