<svg width="46" height="43" viewBox="0 0 46 43" fill="none" xmlns="http://www.w3.org/2000/svg">
                    <path d="M9.58325 9.85415C9.58325 8.19102 10.29 6.59601 11.5481 5.42C12.8061 4.24399 14.5124 3.58331 16.2916 3.58331H22.9999V16.125H16.2916C14.5124 16.125 12.8061 15.4643 11.5481 14.2883C10.29 13.1123 9.58325 11.5173 9.58325 9.85415Z" stroke="#382EB4" stroke-width="2" stroke-linecap="round" stroke-linejoin="round"/>
                    <path d="M23 3.58331H29.7083C30.5893 3.58331 31.4616 3.74551 32.2755 4.06065C33.0894 4.37579 33.8289 4.8377 34.4518 5.42C35.0748 6.0023 35.5689 6.69359 35.906 7.4544C36.2432 8.21521 36.4167 9.03065 36.4167 9.85415C36.4167 10.6776 36.2432 11.4931 35.906 12.2539C35.5689 13.0147 35.0748 13.706 34.4518 14.2883C33.8289 14.8706 33.0894 15.3325 32.2755 15.6476C31.4616 15.9628 30.5893 16.125 29.7083 16.125H23V3.58331Z" stroke="#382EB4" stroke-width="2" stroke-linecap="round" stroke-linejoin="round"/>
                    <path d="M23 22.3958C23 21.5723 23.1735 20.7569 23.5106 19.9961C23.8478 19.2353 24.3419 18.544 24.9648 17.9617C25.5878 17.3794 26.3273 16.9175 27.1412 16.6023C27.9551 16.2872 28.8274 16.125 29.7083 16.125C30.5893 16.125 31.4616 16.2872 32.2755 16.6023C33.0894 16.9175 33.8289 17.3794 34.4518 17.9617C35.0748 18.544 35.5689 19.2353 35.906 19.9961C36.2432 20.7569 36.4167 21.5723 36.4167 22.3958C36.4167 23.2193 36.2432 24.0348 35.906 24.7956C35.5689 25.5564 35.0748 26.2477 34.4518 26.83C33.8289 27.4123 33.0894 27.8742 32.2755 28.1893C31.4616 28.5045 30.5893 28.6667 29.7083 28.6667C28.8274 28.6667 27.9551 28.5045 27.1412 28.1893C26.3273 27.8742 25.5878 27.4123 24.9648 26.83C24.3419 26.2477 23.8478 25.5564 23.5106 24.7956C23.1735 24.0348 23 23.2193 23 22.3958V22.3958Z" stroke="#382EB4" stroke-width="2" stroke-linecap="round" stroke-linejoin="round"/>
                    <path d="M9.58325 34.9375C9.58325 33.2744 10.29 31.6794 11.5481 30.5034C12.8061 29.3274 14.5124 28.6667 16.2916 28.6667H22.9999V34.9375C22.9999 36.6006 22.2931 38.1957 21.0351 39.3717C19.777 40.5477 18.0707 41.2083 16.2916 41.2083C14.5124 41.2083 12.8061 40.5477 11.5481 39.3717C10.29 38.1957 9.58325 36.6006 9.58325 34.9375Z" stroke="#382EB4" stroke-width="2" stroke-linecap="round" stroke-linejoin="round"/>
                    <path d="M9.58325 22.3958C9.58325 20.7327 10.29 19.1377 11.5481 17.9617C12.8061 16.7857 14.5124 16.125 16.2916 16.125H22.9999V28.6667H16.2916C14.5124 28.6667 12.8061 28.006 11.5481 26.83C10.29 25.654 9.58325 24.059 9.58325 22.3958Z" stroke="#382EB4" stroke-width="2" stroke-linecap="round" stroke-linejoin="round"/>
                    </svg>