<svg width="34" height="43" viewBox="0 0 34 43" fill="none" xmlns="http://www.w3.org/2000/svg">
                    <path d="M25.25 21.5C25.25 23.6383 24.3808 25.689 22.8336 27.201C21.2865 28.7131 19.188 29.5625 17 29.5625C14.812 29.5625 12.7135 28.7131 11.1664 27.201C9.61919 25.689 8.75 23.6383 8.75 21.5C8.75 19.3617 9.61919 17.311 11.1664 15.799C12.7135 14.2869 14.812 13.4375 17 13.4375C19.188 13.4375 21.2865 14.2869 22.8336 15.799C24.3808 17.311 25.25 19.3617 25.25 21.5Z" fill="#382EB4"/>
                    <path d="M33.5 37.625V12.0938L21.125 0H6C4.54131 0 3.14236 0.566293 2.11091 1.5743C1.07946 2.58231 0.5 3.94946 0.5 5.375V37.625C0.5 39.0505 1.07946 40.4177 2.11091 41.4257C3.14236 42.4337 4.54131 43 6 43H28C29.4587 43 30.8576 42.4337 31.8891 41.4257C32.9205 40.4177 33.5 39.0505 33.5 37.625ZM21.125 8.0625C21.125 9.13165 21.5596 10.157 22.3332 10.913C23.1068 11.669 24.156 12.0938 25.25 12.0938H30.75V36.9666C30.75 36.9666 28 32.25 17 32.25C6 32.25 3.25 36.9666 3.25 36.9666V5.375C3.25 4.66223 3.53973 3.97865 4.05546 3.47465C4.57118 2.97065 5.27065 2.6875 6 2.6875H21.125V8.0625Z" fill="#382EB4"/>
                    </svg>