<svg width="38" height="43" viewBox="0 0 34 37" fill="none" xmlns="http://www.w3.org/2000/svg">
                    <path d="M31.92 2.45923C30.8017 1.25704 29.2849 0.581665 27.7034 0.581665C26.1218 0.581665 24.605 1.25704 23.4867 2.45923L3.56669 23.875C2.88941 24.6034 2.41342 25.5194 2.19169 26.5213L0.36669 34.763C0.317276 34.9863 0.321909 35.2195 0.380147 35.4404C0.438385 35.6613 0.548286 35.8624 0.69937 36.0246C0.850453 36.1869 1.03768 36.3048 1.2432 36.3671C1.44871 36.4295 1.66566 36.4342 1.87336 36.3809L9.54169 34.419C10.4739 34.1802 11.3261 33.6679 12.0034 32.9391L28.6667 15.0278C29.2099 15.6168 29.5138 16.4133 29.5119 17.2427C29.51 18.0721 29.2025 18.867 28.6567 19.4532L25.685 22.6477C25.4642 22.9025 25.344 23.2394 25.3497 23.5875C25.3554 23.9356 25.4866 24.2678 25.7157 24.514C25.9447 24.7602 26.2536 24.9012 26.5775 24.9073C26.9013 24.9135 27.2147 24.7843 27.4517 24.5469L30.425 21.3524C31.4398 20.2618 32.0106 18.783 32.0122 17.2405C32.0138 15.6981 31.4459 14.2179 30.4334 13.125L31.92 11.5269C33.0383 10.3246 33.6666 8.69411 33.6666 6.99394C33.6666 5.29377 33.0383 3.66324 31.92 2.46102V2.45923ZM25.2534 4.36019C25.5751 4.01432 25.9571 3.73996 26.3774 3.55278C26.7978 3.3656 27.2483 3.26925 27.7034 3.26925C28.1584 3.26925 28.6089 3.3656 29.0293 3.55278C29.4497 3.73996 29.8316 4.01432 30.1534 4.36019C30.4751 4.70606 30.7303 5.11666 30.9044 5.56856C31.0786 6.02046 31.1682 6.50481 31.1682 6.99394C31.1682 7.48307 31.0786 7.96742 30.9044 8.41932C30.7303 8.87121 30.4751 9.28182 30.1534 9.62769L10.2367 31.0381C9.88641 31.4154 9.44562 31.6809 8.96336 31.8049L3.27002 33.2616L4.62502 27.1412C4.74002 26.6234 4.98669 26.1504 5.33669 25.7742L25.2534 4.36019Z" fill="#382EB4"/>
                    </svg>