<svg width="43" height="43" viewBox="0 0 43 43" fill="none" xmlns="http://www.w3.org/2000/svg">
                    <path d="M21.5125 3.58333C11.6261 3.58333 3.59946 11.61 3.59946 21.4964C3.59946 31.381 11.6261 39.4077 21.5125 39.4077C31.399 39.4077 39.4256 31.381 39.4256 21.4964C39.4256 11.61 31.399 3.58333 21.5125 3.58333V3.58333ZM24.2412 14.7096C24.2412 14.7096 26.9323 17.406 30.0731 20.5486C30.3365 20.812 30.4673 21.156 30.4673 21.5C30.4673 21.844 30.3365 22.1862 30.0731 22.4496C26.9323 25.5922 24.243 28.2868 24.243 28.2868C23.9832 28.5466 23.6428 28.6756 23.3006 28.6756C22.9566 28.6738 22.6126 28.543 22.3492 28.2797C21.8261 27.7547 21.8225 26.9072 22.3439 26.3859L25.886 22.8437H13.8944C13.1526 22.8437 12.5506 22.2417 12.5506 21.5C12.5506 20.7582 13.1526 20.1562 13.8944 20.1562H25.886L22.3421 16.6105C21.8225 16.0927 21.8279 15.2453 22.3528 14.7221C22.6162 14.4587 22.9602 14.3262 23.3024 14.3244C23.6428 14.3244 23.9832 14.4516 24.2412 14.7096V14.7096Z" fill="#382EB4"/>
                    </svg>